# xmcd
#
# Track frame offsets:
#	150
#	25548
#	44727
#	65062
#	87317
#	107766
#	124229
#	148738
#	169997
#	187374
#	202284
#	218462
#	234362
#	260102
#	273426
#	286594
#
# Disc length: 4002 seconds
#
# Revision: 1
# Processed by: cddbd v1.5.2PL0 Copyright (c) Steve Scherf et al.
# Submitted via: audiograbber 1.83.01
#
DISCID=000fa010
DTITLE=Various Artist - Bestseller auf dem Plattenteller - Disc2
DYEAR=2009
DGENRE=Ballad
TTITLE0=The Moody Blues - Nights in white satin
TTITLE1=Captain and Tennille - Do that to me one more time
TTITLE2=Jon and Vangelis - I'll find my way home
TTITLE3=Sam Brown - Stop
TTITLE4=Arlo Guthrie - City of New Orleans
TTITLE5=Collage - S.O.S
TTITLE6=Julie Covington - Don't cry for me again
TTITLE7=Boston - More than a feeling
TTITLE8=Chigaco - Hard to say I'm sorry
TTITLE9=Robbin Beck - First time
TTITLE10=James Last and his Orchestra - Morgens um sieben ist die Welt noch in Or
TTITLE10=dnung
TTITLE11=Willie Nelson - Always on my mind
TTITLE12=Kool and the Gang - Cherish
TTITLE13=Peter, Sue and Marc - Io senza te
TTITLE14=Manhattan Transfer - Chanson d'amour
TTITLE15=Nicole - Ein bisschen Frieden
EXTD=
EXTT0=
EXTT1=
EXTT2=
EXTT3=
EXTT4=
EXTT5=
EXTT6=
EXTT7=
EXTT8=
EXTT9=
EXTT10=
EXTT11=
EXTT12=
EXTT13=
EXTT14=
EXTT15=
PLAYORDER=
